<svg width="40" height="27" viewBox="0 0 40 27" fill="none" xmlns="http://www.w3.org/2000/svg">
<rect x="0.281494" y="0.873535" width="39.3272" height="25.5613" rx="10" fill="white"/>
<g clip-path="url(#clip0_53_712)">
<path d="M16.5565 20.8999C16.9518 20.8999 17.2724 20.5646 17.2724 20.151C17.2724 19.7374 16.9518 19.4021 16.5565 19.4021C16.1611 19.4021 15.8406 19.7374 15.8406 20.151C15.8406 20.5646 16.1611 20.8999 16.5565 20.8999Z" stroke="#616467" stroke-width="2" stroke-linecap="round" stroke-linejoin="round"/>
<path d="M24.4312 20.8999C24.8266 20.8999 25.1471 20.5646 25.1471 20.151C25.1471 19.7374 24.8266 19.4021 24.4312 19.4021C24.0358 19.4021 23.7153 19.7374 23.7153 20.151C23.7153 20.5646 24.0358 20.8999 24.4312 20.8999Z" stroke="#616467" stroke-width="2" stroke-linecap="round" stroke-linejoin="round"/>
<path d="M10.8291 5.17261H13.6927L15.6113 15.2006C15.6767 15.5454 15.856 15.8552 16.1178 16.0756C16.3795 16.296 16.7071 16.4131 17.043 16.4064H24.0015C24.3375 16.4131 24.665 16.296 24.9268 16.0756C25.1885 15.8552 25.3678 15.5454 25.4333 15.2006L26.5787 8.91721H14.4086" stroke="#616467" stroke-width="2" stroke-linecap="round" stroke-linejoin="round"/>
</g>
<defs>
<clipPath id="clip0_53_712">
<rect width="17.1814" height="17.9741" fill="white" transform="translate(10.1133 4.42371)"/>
</clipPath>
</defs>
</svg>
