<svg width="13" height="13" viewBox="0 0 13 13" fill="none" xmlns="http://www.w3.org/2000/svg">
<ellipse cx="6.67046" cy="6.95716" rx="6.23443" ry="6.04285" fill="#FF6565"/>
<path d="M6.88067 10.5556C6.33401 10.5556 5.85401 10.4223 5.44067 10.1556C5.02734 9.8823 4.70401 9.49563 4.47067 8.99563C4.23734 8.49563 4.12067 7.89897 4.12067 7.20563C4.12067 6.09897 4.37067 5.26563 4.87067 4.70563C5.37067 4.14563 6.04067 3.86897 6.88067 3.87563C7.42067 3.86897 7.89734 4.0023 8.31067 4.27563C8.73067 4.5423 9.05734 4.92563 9.29067 5.42563C9.52401 5.92563 9.64067 6.51897 9.64067 7.20563C9.64067 7.91897 9.52401 8.52563 9.29067 9.02563C9.05734 9.52563 8.73067 9.90563 8.31067 10.1656C7.89734 10.4256 7.42067 10.5556 6.88067 10.5556ZM6.87067 9.62563C7.25734 9.62563 7.58067 9.52563 7.84067 9.32563C8.10067 9.11897 8.29734 8.8323 8.43067 8.46563C8.56401 8.09897 8.63401 7.6723 8.64067 7.18563C8.63401 6.47897 8.48067 5.90563 8.18067 5.46563C7.88734 5.02563 7.45067 4.80897 6.87067 4.81563C6.49067 4.80897 6.17067 4.90897 5.91067 5.11563C5.65067 5.31563 5.45401 5.59563 5.32067 5.95563C5.18734 6.31563 5.12067 6.7323 5.12067 7.20563C5.12067 7.68563 5.18734 8.10897 5.32067 8.47563C5.45401 8.83563 5.65067 9.11897 5.91067 9.32563C6.17067 9.52563 6.49067 9.62563 6.87067 9.62563Z" fill="#F5F7FB"/>
</svg>
